<svg width="50" height="67" viewBox="0 0 50 67" fill="none" xmlns="http://www.w3.org/2000/svg">
<path id="image 1 (Traced)" d="M8.17321 0.393456C7.99219 1.00905 4.24062 20.3131 4.24085 20.6284C4.24107 20.8419 5.13147 20.9094 7.94821 20.9094H11.6556L11.5049 21.5137C11.4221 21.8463 10.0951 25.5643 8.55625 29.7763C4.39085 41.1769 4.24554 41.594 4.4375 41.594C4.53505 41.594 6.32344 39.5451 8.41205 37.0411C13.5971 30.8243 15.3174 28.768 21.4629 21.4411C24.381 17.9618 26.7975 14.9988 26.833 14.8562C26.8804 14.6656 25.4054 14.6013 21.2402 14.6127C17.8801 14.622 15.6143 14.5442 15.6598 14.4214C15.702 14.3074 16.8917 11.0163 18.3036 7.1074L20.8705 0.000674126L31.3594 0.000224709L41.8482 0L45.9241 4.10094L50 8.20188V16.6331V25.0645L45.817 29.2822L41.6339 33.5L45.817 37.7179L50 41.9355V50.3258V58.7163L45.8199 62.8581L41.6397 67H20.8199H0V33.5V0H4.14442C7.98705 0 8.28058 0.0287785 8.17321 0.393456Z" fill="#95D600"/>
</svg>
