<svg width="91" height="37" viewBox="0 0 91 37" fill="none" xmlns="http://www.w3.org/2000/svg">
<g id="Layer_2" clip-path="url(#clip0_28_3)">
<path id="Vector" d="M78.8167 20.5721C77.9282 20.6644 77.1973 20.4572 76.6711 19.9452C76.1449 19.4325 75.8802 18.7042 75.8711 17.7125C75.8673 16.7672 76.1165 15.9853 76.6608 15.3138C77.2102 14.6895 77.9289 14.3305 78.8173 14.2382C79.893 14.1258 80.7833 14.5061 81.5865 15.4145L84.279 12.6763C83.6346 11.9396 82.8701 11.405 81.8913 11.0815C80.9118 10.758 79.8174 10.6831 78.6016 10.8097C78.1342 10.8581 77.6712 10.9537 77.26 11.0912L75.2791 8.41427C76.03 7.91065 76.6311 7.32826 77.0301 6.62449C77.4717 5.86971 77.6738 5.09233 77.6699 4.14708C77.6661 3.20183 77.4382 2.37474 76.9442 1.71745C76.4968 1.055 75.8305 0.557194 74.9498 0.271165C74.3642 0.0955445 73.6901 -0.0232575 72.9837 0.0032147C72.6047 -0.00453326 72.2774 0.0296869 71.9035 0.0684267L65.8298 0.748956L65.8324 12.5659L63.3072 12.8293L58.5415 24.2453L58.5144 14.4635C58.5454 14.46 58.5766 14.4568 58.608 14.4538C59.9639 14.3124 61.1507 13.905 62.2612 13.2225C63.3246 12.5446 64.1775 11.6523 64.8232 10.5921C65.4172 9.48994 65.7213 8.32388 65.7297 7.04675C65.7433 5.81612 65.3927 4.71849 64.8225 3.78486C64.2059 2.8564 63.3278 2.14488 62.2412 1.69098C61.159 1.28421 59.9607 1.12538 58.6048 1.26678C57.2489 1.40818 56.0157 1.82011 54.9097 2.54971C53.8876 3.176 53.0773 4.01666 52.4684 4.9787L52.513 2.23269L40.8329 3.54468L40.84 6.33265C40.2286 5.45132 39.4067 4.82761 38.4181 4.41051C37.3309 3.95661 36.086 3.80294 34.7301 3.94434C33.3787 4.13223 32.1455 4.54481 31.0815 5.22276C29.9709 5.90587 29.1187 6.79817 28.5195 7.85319C27.9255 8.95534 27.6214 10.1214 27.6078 11.3514C27.5994 12.6285 27.9029 13.7313 28.5201 14.6598C29.1367 15.5882 29.9677 16.3049 31.055 16.7588C31.3501 16.8699 31.6406 16.9344 31.9822 17.0403L27.4754 27.7674L27.4658 17.7002L27.5129 17.6957L27.4742 5.07942L23.9721 5.492L19.9464 12.6711L15.8406 6.38689L12.3385 6.79947C12.1513 6.81884 12.0112 6.83369 11.8239 6.85306C11.0756 6.93118 10.3796 7.05063 9.69711 7.31083C9.01012 7.5239 8.43161 7.86804 7.80661 8.2167C7.31655 8.50402 6.71866 8.66091 6.11562 8.77132C5.37246 8.89593 4.72034 8.53888 4.13278 7.89064C4.03077 9.17744 4.32003 10.1401 5.44154 10.9214C4.02883 10.9743 3.00804 10.7025 2.06924 9.85474C1.17177 8.95534 0.675903 7.82542 0.133545 6.70068C-0.18864 9.05025 0.0457353 10.3965 1.06007 12.418C1.53205 13.3142 2.29135 13.8023 3.09327 14.2388C4.19541 14.8328 5.43509 14.94 6.698 14.8083C7.39919 14.7353 8.14235 14.6101 8.84871 14.5842C9.46144 14.5674 9.77588 14.8657 9.92309 15.37C10.1659 16.3372 9.82108 16.6568 8.91005 16.988C8.59238 17.1159 8.16689 17.1126 7.74591 17.1565C7.85439 17.287 7.85891 17.3341 7.91572 17.4226C8.06552 17.5013 8.17399 17.6318 8.32895 17.7577C8.99075 18.2083 9.74037 18.6028 10.5177 18.8056C10.8599 18.9115 11.1918 18.9244 11.5437 19.1239C11.5908 19.1194 11.6418 19.1607 11.647 19.2078C11.6941 19.2033 11.6987 19.2498 11.7038 19.2963C11.8736 19.5623 11.8607 19.8942 11.7032 20.1944C11.494 20.4527 11.228 20.6218 10.9051 20.7032C10.4519 20.8924 9.88629 20.904 9.36718 20.9104C8.80093 20.9221 8.24049 20.9808 7.67877 21.0396C7.07572 21.15 6.47267 21.2597 5.82313 21.3747C6.26347 21.518 6.65216 21.6194 7.00405 21.8189C7.8008 22.2082 8.15139 23.3065 7.66392 24.0664C7.33398 24.5261 6.38873 24.53 5.86252 24.018C5.6559 23.8501 5.40732 23.7346 5.16391 23.6655C4.28839 23.4259 3.50326 23.6022 2.82273 24.335C2.23131 25.011 2.2623 25.7639 2.29393 26.5174C2.65357 26.3379 3.00804 26.1119 3.33022 26.0312C3.74603 25.9408 4.26062 25.8872 4.53826 26.2836C4.86755 26.722 5.10838 27.2166 5.3957 27.7067C5.6785 28.1503 5.92385 28.6913 6.28994 29.0316C6.86265 29.5391 7.64003 29.7418 8.39287 29.7108C9.09923 29.6844 9.85207 29.6534 10.6056 29.6217C10.3983 30.3526 9.60801 30.4817 9.03401 30.873C9.16444 30.7645 10.2885 31.1203 10.5274 31.1429C11.1034 31.2249 11.6786 31.3063 12.2449 31.2946C12.806 31.2359 13.6111 31.2469 14.1993 30.9963L16.2099 30.7865L16.1957 25.2106L18.9404 29.3202L20.8574 29.1207L23.606 24.202L23.6396 29.9652L31.0647 29.0968L31.9111 26.7866L36.7272 26.2849L37.5594 28.3724L45.3635 27.5117L45.3771 21.7433L50.175 26.9629L53.6771 26.5503L53.6849 13.9289L49.5281 14.4093L49.51 20.1305L45.4075 15.6896L48.7694 15.2919L48.7914 5.97818L52.1533 5.58045C51.6846 6.52764 51.4651 7.5904 51.4831 8.67576C51.4748 9.95288 51.7782 11.0557 52.3955 11.9841C52.9042 12.7815 53.5803 13.373 54.4803 13.8469L54.2931 13.8662L54.2853 26.4877L57.7874 26.0751L62.0843 25.5799L62.9824 23.3117L67.7468 22.768L68.6255 24.8509L73.016 24.346L67.8326 13.1638L70.0724 12.8829V9.71593L71.2424 9.5939L73.3924 12.5368L74.5101 12.3735C73.6804 13.0269 73.005 13.8068 72.4853 14.7114C71.8861 15.7664 71.5826 16.9325 71.5736 18.2096C71.5652 19.4867 71.8687 20.5895 72.4859 21.518C73.1025 22.4465 73.9335 23.1632 75.0163 23.5706C76.0564 24.029 77.2548 24.1878 78.6107 24.0471C79.8213 23.8734 80.9241 23.5693 81.9042 22.9946C82.8424 22.4716 83.6623 21.7246 84.2809 20.8562L81.6059 18.7714C80.8201 19.8457 79.8865 20.4159 78.816 20.5747M19.9451 24.4422L16.2351 18.7785L16.2454 13.4362L18.943 17.551L20.8555 17.3044L23.604 12.3857L23.6131 17.9152L19.9451 24.4422ZM33.0914 23.5919L34.3079 20.2977L35.5695 23.333L33.0914 23.5912V23.5919ZM36.1635 13.156C35.7251 13.4853 35.2718 13.6745 34.7579 13.7281C34.6178 13.7429 34.5242 13.7526 34.3834 13.7668C34.0044 13.7591 33.6157 13.6577 33.3161 13.5002C32.8706 13.3103 32.551 12.9655 32.2688 12.522C32.0332 12.0739 31.8808 11.5225 31.9111 10.9046C31.8898 10.2454 32.0183 9.66427 32.2966 9.16259C32.5284 8.66543 32.8635 8.25285 33.3071 7.97005C33.7455 7.64077 34.1987 7.45159 34.7127 7.398C35.2738 7.33924 35.7561 7.43092 36.1545 7.62592C36.6045 7.86287 36.9196 8.16052 37.2017 8.60409C37.4374 9.05218 37.5898 9.60358 37.5639 10.268C37.5807 10.8807 37.4522 11.4612 37.1733 11.9628C36.9415 12.46 36.6064 12.8726 36.1628 13.1554M44.5255 14.9303L41.2106 15.3229L41.2145 26.2417L36.8143 16.6794C37.3605 16.4805 37.9023 16.2352 38.3878 15.9007C39.4983 15.2176 40.3506 14.3253 40.9498 13.2703C41.549 12.2153 41.8524 11.0492 41.8615 9.7721C41.8847 8.63509 41.6419 7.66788 41.1758 6.81884L44.5423 6.4676L44.5261 14.9303H44.5255ZM58.2529 11.0415C57.8739 11.0337 57.4904 10.9795 57.1437 10.8265C56.7401 10.585 56.3786 10.2919 56.1429 9.84377C55.9072 9.39568 55.7549 8.84428 55.7335 8.18441C55.7639 7.56651 55.8924 6.98606 56.1242 6.48955C56.4025 5.98787 56.7375 5.57464 57.176 5.24535C57.5724 4.96772 58.0721 4.77402 58.5867 4.72043C59.1013 4.66684 59.583 4.75852 60.0285 4.94835C60.474 5.13817 60.7936 5.48296 61.0293 5.93105C61.3114 6.37462 61.4173 6.93054 61.4335 7.54327C61.4083 8.20766 61.2798 8.78811 61.048 9.28527C60.8162 9.78243 60.4346 10.2002 60.0375 10.4778C59.5991 10.8071 59.1414 10.9491 58.5854 11.0544C58.4918 11.0641 58.3465 11.0318 58.2529 11.0421M64.1149 20.1208L65.3733 16.775L66.5884 19.8154L64.1149 20.1208ZM72.9243 5.77867C72.626 6.09376 72.2199 6.27777 71.6588 6.33588L70.0692 6.50181L70.0944 3.56857L71.6323 3.36066C72.1934 3.30191 72.6286 3.39876 72.934 3.60343C73.2439 3.8546 73.3718 4.17226 73.3737 4.64489C73.3756 5.11751 73.2278 5.51072 72.925 5.77867" fill="#FFF100"/>
<path id="Vector_2" d="M87.6669 17.1514C86.3426 17.1514 85.2695 18.2251 85.2695 19.5487C85.2695 20.8724 86.3433 21.9467 87.6669 21.9467C88.9905 21.9467 90.0642 20.873 90.0642 19.5487C90.0642 18.2245 88.9911 17.1514 87.6669 17.1514Z" fill="#FFF100"/>
<path id="Vector_3" d="M20.5573 34.3041C20.6774 34.2292 20.7703 34.1343 20.8375 34.0187C20.9046 33.9031 20.9376 33.7753 20.9376 33.6365C20.9376 33.4072 20.8439 33.2355 20.6573 33.1199C20.4708 33.005 20.2028 32.965 19.8535 32.9992L18.4543 33.138V36.0015L19.9355 35.8543C20.3093 35.8175 20.5934 35.7213 20.7884 35.567C20.9834 35.4127 21.0809 35.2099 21.0809 34.9588C21.0809 34.7819 21.0344 34.6366 20.9421 34.5249C20.8491 34.4125 20.7213 34.3389 20.5573 34.3034M19.1136 33.5712L19.7721 33.506C19.9355 33.4899 20.0601 33.506 20.144 33.5532C20.2286 33.6009 20.2706 33.6804 20.2706 33.7921C20.2706 33.9038 20.228 33.9922 20.144 34.0581C20.0595 34.1239 19.9355 34.1646 19.7721 34.1808L19.1136 34.246V33.5712ZM20.2816 35.2345C20.1931 35.3003 20.0614 35.3423 19.8871 35.3597L19.1142 35.4366V34.7289L19.8871 34.6521C20.239 34.6172 20.4146 34.7179 20.4146 34.9555C20.4146 35.0756 20.37 35.1686 20.2816 35.2345Z" fill="white"/>
<path id="Vector_4" d="M22.4885 34.8936L21.8706 33.4622L21.212 33.5274L22.165 35.6503L22.1566 35.6716C22.1134 35.7743 22.0636 35.8492 22.0094 35.8969C21.9545 35.9447 21.8841 35.9725 21.797 35.9815C21.7343 35.988 21.6711 35.9815 21.6065 35.9635C21.5426 35.9454 21.4858 35.917 21.4367 35.8782L21.2036 36.3554C21.2746 36.4109 21.3657 36.4509 21.4774 36.4755C21.5891 36.5 21.7021 36.5065 21.817 36.4948C22.0268 36.4742 22.2063 36.4044 22.3548 36.2863C22.5033 36.1675 22.6279 35.977 22.7293 35.7129L23.7236 33.2781L23.1103 33.3388L22.4885 34.8936Z" fill="white"/>
<path id="Vector_5" d="M61.8132 28.9386C61.409 28.9825 61.0829 29.3422 61.0842 29.7412C61.0862 30.1409 61.4155 30.4295 61.819 30.3856C62.2225 30.3417 62.5492 29.982 62.5479 29.583C62.546 29.184 62.2167 28.8947 61.8125 28.9386" fill="white"/>
<path id="Vector_6" d="M67.9025 30.485C68.8277 30.3849 69.3514 29.5991 69.3481 28.845C69.3449 28.0902 68.8155 27.4232 67.8902 27.5233C66.965 27.6234 66.4414 28.4047 66.4446 29.1594C66.4478 29.9142 66.9773 30.5857 67.9032 30.4856M67.8928 28.1567C68.3887 28.1031 68.6579 28.495 68.6599 28.9199C68.6618 29.3493 68.3913 29.7909 67.8999 29.8438C67.4086 29.8968 67.1393 29.5139 67.1374 29.0845C67.1355 28.6597 67.397 28.2103 67.8922 28.1567" fill="white"/>
<path id="Vector_7" d="M70.4347 30.155L70.4276 28.455L70.8602 29.0154L71.4652 28.9502L71.8972 28.2962L71.9043 29.9962L72.5667 29.9245L72.5544 27.0752L71.9708 27.1385L71.1772 28.3698L70.3347 27.3154L69.7555 27.378L69.7678 30.2267L70.4347 30.155Z" fill="white"/>
<path id="Vector_8" d="M64.5159 30.8517C65.2759 30.7697 65.7808 30.219 65.9228 29.5849L65.2062 29.6624C65.0957 29.9491 64.851 30.1738 64.5134 30.21C64.022 30.2629 63.7528 29.88 63.7508 29.4507C63.7489 29.0258 64.0104 28.5764 64.5063 28.5228C64.8517 28.4854 65.1016 28.6688 65.2107 28.9432L65.9248 28.8657C65.7847 28.2555 65.272 27.8061 64.503 27.8894C63.5778 27.9895 63.0542 28.7708 63.0574 29.5255C63.0606 30.2803 63.5901 30.9518 64.5159 30.8517Z" fill="white"/>
<path id="Vector_9" d="M28.59 33.4537L29.2647 32.7099L29.2589 31.3702L28.5783 30.7736L26.8848 30.957L26.4573 32.1773L27.3974 32.0746L25.5463 34.4616L26.1623 32.7106L25.5411 32.7777L25.8679 31.0667L25.1906 31.1403L25.2132 36.4993L28.6016 36.1332L29.2763 35.3901L29.2705 34.0503L28.59 33.4537Z" fill="white"/>
<path id="Vector_10" d="M31.4489 31.4645L29.6888 36.0299L30.9543 35.8931L31.3566 34.8148L33.0218 34.6347L33.4395 35.6238L34.7186 35.4856L32.9275 31.3037L31.4489 31.4638V31.4645ZM31.7653 33.7165L32.174 32.6576L32.6118 33.6248L31.7659 33.7165H31.7653Z" fill="white"/>
<path id="Vector_11" d="M38.5242 30.6993L34.1272 31.1752L34.1324 32.2354L35.731 32.0623L35.7452 35.3752L36.9378 35.2467L36.9236 31.9338L38.5287 31.7595L38.5242 30.6993Z" fill="white"/>
<path id="Vector_12" d="M40.3416 33.8237L40.3391 33.2181L42.6576 32.9676L42.6525 31.9067L40.3345 32.1579L40.3319 31.5652L43.4492 31.2275L43.4447 30.1673L39.1349 30.6335L39.1536 35.0066L43.4641 34.5404L43.4589 33.4867L40.3416 33.8237Z" fill="white"/>
<path id="Vector_13" d="M47.6325 32.3632C48.2975 32.1004 48.5616 31.498 48.5596 30.9912C48.5571 30.3455 48.1542 29.6579 47.1611 29.7651L44.0833 30.0982L44.102 34.4713L45.2945 34.3422L45.2874 32.6828L46.3334 32.5698L47.3529 34.1201L48.6985 33.9748L47.6383 32.3761C47.6383 32.3697 47.6318 32.3703 47.6318 32.3639M47.1676 31.4193L45.2822 31.6233L45.2797 31.0306L47.165 30.8265C47.2916 30.813 47.3652 30.8969 47.3658 31.0422V31.161C47.3671 31.3056 47.2941 31.4064 47.1676 31.4199" fill="white"/>
<path id="Vector_14" d="M49.2377 29.5404L49.2564 33.9141L50.4489 33.785L50.4302 29.4119L49.2377 29.5404Z" fill="white"/>
<path id="Vector_15" d="M54.1776 29.0064L52.3194 30.9137L52.3123 29.2085L51.1198 29.337L51.1385 33.7107L52.331 33.5816L52.3258 32.4226L52.3323 31.0641L54.3364 33.3646L55.7885 33.2077L53.7928 30.926L55.8499 28.8256L54.1776 29.0064Z" fill="white"/>
<path id="Vector_16" d="M72.6333 30.68L63.0671 31.715L63.0704 32.4988L72.6365 31.4645L72.6333 30.68Z" fill="white"/>
<path id="Vector_17" d="M59.2809 28.4544L59.2906 30.72C59.2925 31.2075 59.0155 31.837 58.3757 31.9061C57.7294 31.9758 57.4472 31.4135 57.4453 30.9195L57.4356 28.6539L56.243 28.783L56.2527 31.0487C56.2566 32.0101 56.9016 33.1664 58.3802 33.0063C59.8523 32.8468 60.487 31.5465 60.4825 30.5915L60.4728 28.3259L59.2802 28.455L59.2809 28.4544Z" fill="white"/>
</g>
<defs>
<clipPath id="clip0_28_3">
<rect width="90.0648" height="36.4993" fill="white"/>
</clipPath>
</defs>
</svg>
